# Blender 3.1.0
# www.blender.org
mtllib spikes.mtl
o Circle.001
v -0.292534 0.000000 0.087907
v -0.137909 0.000000 0.127512
v -0.026298 0.000000 0.013404
v -0.069312 0.000000 -0.140307
v -0.223937 0.000000 -0.179912
v -0.335548 0.000000 -0.065805
v -0.242741 0.153845 0.018641
v -0.164264 0.153845 0.038742
v -0.107618 0.153845 -0.019171
v -0.129449 0.153845 -0.097184
v -0.207926 0.153845 -0.117284
v -0.264572 0.153845 -0.059372
v -0.237940 0.287469 -0.011533
v -0.185124 0.253352 0.009802
v -0.134771 0.240792 -0.031615
v -0.137233 0.262349 -0.094367
v -0.190049 0.296466 -0.115702
v -0.240402 0.309026 -0.074285
v -0.212706 0.394309 -0.016895
v -0.160201 0.394309 -0.003446
v -0.122302 0.394309 -0.042193
v -0.136908 0.394309 -0.094388
v -0.189413 0.394309 -0.107836
v -0.227312 0.394309 -0.069090
v -0.199459 0.558510 -0.078468
v 0.209897 0.000000 -0.131833
v 0.014383 0.000000 -0.018953
v 0.014383 0.000000 0.206807
v 0.209897 0.000000 0.319687
v 0.405411 0.000000 0.206807
v 0.405411 0.000000 -0.018953
v 0.222734 0.153845 -0.058632
v 0.085654 0.153845 0.020512
v 0.085654 0.153845 0.178799
v 0.222734 0.153845 0.257942
v 0.359814 0.153845 0.178799
v 0.359814 0.153845 0.020512
v 0.205577 0.266100 -0.013069
v 0.104112 0.266100 0.045512
v 0.104112 0.266100 0.162674
v 0.205577 0.266100 0.221255
v 0.307042 0.266100 0.162674
v 0.307042 0.266100 0.045512
v 0.214636 0.386614 0.018253
v 0.167697 0.386614 0.045353
v 0.167697 0.386614 0.099553
v 0.214636 0.386614 0.126653
v 0.261574 0.386614 0.099553
v 0.261574 0.386614 0.045353
v 0.237928 0.495497 0.047965
v -0.068753 0.000000 -0.354670
v -0.099631 0.000000 -0.216213
v 0.004838 0.000000 -0.120244
v 0.140184 0.000000 -0.162732
v 0.171062 0.000000 -0.301189
v 0.066593 0.000000 -0.397158
v -0.019814 0.051551 -0.312063
v -0.040668 0.051551 -0.218551
v 0.029889 0.051551 -0.153735
v 0.121300 0.051551 -0.182430
v 0.142154 0.051551 -0.275942
v 0.071597 0.051551 -0.340758
v -0.031117 0.175763 -0.294433
v -0.044688 0.175763 -0.233577
v 0.001229 0.175763 -0.191395
v 0.060718 0.175763 -0.210070
v 0.074290 0.175763 -0.270927
v 0.028372 0.175763 -0.313108
v -0.016807 0.386614 -0.313385
v -0.028605 0.386614 -0.260485
v 0.011310 0.386614 -0.223818
v 0.069223 0.364969 -0.252209
v 0.074819 0.386614 -0.292952
v 0.034904 0.386614 -0.329619
v 0.056942 0.466665 -0.312741
vn 0.2775 0.2042 0.2714
vn -0.2951 0.1482 -0.2886
vn 0.3849 0.1806 -0.1077
vn -0.0967 0.2013 0.3775
vn -0.3876 0.1743 0.1085
vn 0.1021 0.1517 -0.3987
vn -0.3132 0.0193 -0.3064
vn 0.4374 0.0315 -0.0063
vn -0.1061 0.0982 0.4141
vn -0.4205 0.0417 0.1177
vn 0.1558 -0.0150 -0.4097
vn 0.2983 0.1349 0.2918
vn -0.4233 0.1026 0.0518
vn 0.1085 0.0334 -0.4237
vn 0.3135 -0.0043 0.3067
vn -0.3100 0.0660 -0.3032
vn 0.4224 -0.0011 -0.1182
vn -0.1278 0.0616 0.4150
vn -0.3125 0.0356 -0.3057
vn 0.3931 0.1604 -0.1100
vn -0.1016 0.1570 0.3967
vn -0.4158 0.0772 0.1164
vn 0.1069 0.0812 -0.4175
vn 0.2815 0.1931 0.2754
vn -0.0000 -0.4386 -0.0000
vn -0.3980 0.1844 -0.0000
vn 0.4205 0.1246 -0.0000
vn -0.2044 0.1591 0.3540
vn -0.1997 0.1812 -0.3459
vn 0.2057 0.1523 -0.3562
vn 0.2097 0.1283 0.3632
vn 0.3969 0.1866 -0.0000
vn -0.2148 0.0887 0.3720
vn -0.2114 0.1163 -0.3662
vn 0.2016 0.1726 -0.3492
vn 0.2064 0.1484 0.3575
vn -0.4328 0.0712 -0.0000
vn 0.2155 0.0808 -0.3733
vn 0.1845 0.2370 0.3196
vn -0.3879 0.2047 -0.0000
vn 0.4104 0.1548 -0.0000
vn -0.1782 0.2557 0.3086
vn -0.2121 0.1114 -0.3674
vn 0.4286 0.0931 -0.0000
vn -0.1769 0.2593 0.3064
vn -0.2074 0.1424 -0.3593
vn 0.2175 0.0563 -0.3767
vn 0.1947 0.2020 0.3372
vn -0.3686 0.2377 -0.0000
vn -0.2309 0.2755 0.2513
vn 0.2385 0.2609 -0.2596
vn 0.1187 0.1880 0.3781
vn -0.2870 0.3254 -0.0640
vn -0.0896 0.3208 -0.2853
vn 0.3917 0.1769 0.0874
vn 0.2756 0.1627 -0.3000
vn 0.1237 0.1480 0.3939
vn -0.4274 -0.0254 -0.0953
vn -0.1306 0.0472 -0.4160
vn 0.3791 0.2037 0.0845
vn -0.2961 0.0294 0.3223
vn -0.1311 -0.0286 -0.4176
vn 0.4341 0.0054 0.0625
vn -0.2936 0.0632 0.3196
vn 0.2958 -0.0344 -0.3220
vn 0.1288 0.0856 0.4104
vn -0.4276 0.0204 -0.0954
vn 0.2966 -0.0136 -0.3228
vn 0.2299 0.2111 0.3081
vn -0.3180 0.2936 -0.0709
vn -0.1264 0.1197 -0.4026
vn 0.4047 0.1199 0.1193
vn -0.1896 0.3374 0.2064
vn -0.2719 0.0379 -0.3421
vn 0.4086 0.1112 -0.1143
vn -0.1046 0.0974 0.4147
vn -0.4308 0.0711 0.0413
vn 0.1087 0.0188 -0.4245
vn 0.2838 0.1469 0.3005
vn -0.4188 0.0571 0.1172
vn 0.1640 -0.0005 -0.4068
vn 0.2759 -0.0168 0.3405
vn -0.2736 0.0292 -0.3415
vn 0.4360 -0.0375 -0.0300
vn -0.1082 0.0468 0.4225
vn 0.4281 0.0020 0.0955
vn 0.2065 0.0491 0.3838
vt 0.000000 0.359225
vt 0.898069 0.700119
vt 0.231635 0.679031
vt 0.997867 0.700119
vt 0.796011 0.716102
vt 0.320320 0.627828
vt 0.898069 0.716102
vt 0.482506 0.668842
vt 0.409005 0.679031
vt 0.552285 0.694615
vt 0.409005 0.781435
vt 0.173209 0.333402
vt 0.651170 0.700938
vt 0.320320 0.832638
vt 0.231635 0.781435
vt 0.093433 0.337633
vt 0.063810 0.451387
vt 0.920666 0.589942
vt 0.971316 0.589942
vt 0.823114 0.606495
vt 0.874911 0.606495
vt 0.550070 0.578899
vt 0.897276 0.593250
vt 0.585484 0.591979
vt 0.151719 0.438280
vt 0.635671 0.595188
vt 0.111230 0.440428
vt 0.097606 0.531797
vt 0.926224 0.508325
vt 0.959627 0.529089
vt 0.826788 0.538846
vt 0.575887 0.527104
vt 0.868392 0.547875
vt 0.597556 0.524313
vt 0.894010 0.526041
vt 0.636323 0.506665
vt 0.167491 0.529123
vt 0.139183 0.537704
vt 0.114394 0.600053
vt 0.948060 0.447763
vt 0.846605 0.454031
vt 0.981947 0.447763
vt 0.584044 0.433870
vt 0.881260 0.454031
vt 0.607738 0.442621
vt 0.641316 0.444768
vt 0.173209 0.591284
vt 0.146120 0.592721
vt 0.952516 0.338147
vt 0.171843 0.696590
vt 0.651170 0.338147
vt 0.861835 0.338147
vt 0.751390 0.330312
vt 0.451268 0.000000
vt 0.231635 0.555408
vt 0.366923 0.011616
vt 0.231635 0.410568
vt 0.231635 0.061728
vt 0.651170 0.691411
vt 0.357071 0.338147
vt 0.796011 0.691411
vt 0.000000 0.278632
vt 0.482506 0.410568
vt 0.131842 0.332808
vt 0.482506 0.555408
vt 0.231635 0.333402
vt 0.606556 0.330312
vt 0.357071 0.627828
vt 0.441208 0.109131
vt 0.720903 0.225822
vt 0.382071 0.117276
vt 0.681782 0.587957
vt 0.287217 0.152411
vt 0.783334 0.587957
vt 0.063653 0.193201
vt 0.156091 0.231185
vt 0.226059 0.231601
vt 0.619357 0.225822
vt 0.715953 0.148617
vt 0.436306 0.185195
vt 0.392534 0.191223
vt 0.322324 0.217230
vt 0.686862 0.519763
vt 0.762029 0.519763
vt 0.095284 0.123533
vt 0.163705 0.151648
vt 0.640790 0.148617
vt 0.215494 0.151956
vt 0.700835 0.070046
vt 0.443933 0.264838
vt 0.423684 0.267627
vt 0.391204 0.279658
vt 0.701943 0.424664
vt 0.165165 0.056457
vt 0.736716 0.424664
vt 0.196817 0.069463
vt 0.220775 0.069606
vt 0.666064 0.070046
vt 0.724417 0.338147
vt 0.678289 0.000000
vt 0.231635 0.000000
vt 0.451268 0.338147
vt 0.751390 0.040720
vt 0.651170 1.000000
vt 0.157637 0.833108
vt 0.986549 0.001333
vt 0.741433 1.000000
vt 0.078819 0.878614
vt 0.897055 0.000000
vt 0.451268 0.285530
vt 0.000000 0.833108
vt 0.531973 0.309771
vt 0.000000 0.742096
vt 0.606556 0.306106
vt 0.897055 0.000000
vt 0.078818 0.696590
vt 0.157637 0.742096
vt 0.809277 0.013111
vt 0.674862 0.961895
vt 0.798193 0.065942
vt 0.735824 0.961895
vt 0.958903 0.043292
vt 0.898460 0.042392
vt 0.482619 0.257003
vt 0.537126 0.273375
vt 0.587498 0.270900
vt 0.896573 0.038440
vt 0.837289 0.047295
vt 0.813659 0.145076
vt 0.685288 0.883755
vt 0.724962 0.883755
vt 0.973497 0.112366
vt 0.934162 0.111780
vt 0.498494 0.173403
vt 0.533967 0.184058
vt 0.566749 0.182447
vt 0.877684 0.127178
vt 0.839103 0.132941
vt 0.841400 0.270131
vt 0.669784 0.749026
vt 0.986549 0.235423
vt 0.704271 0.749026
vt 0.952356 0.234914
vt 0.538677 0.045577
vt 0.575467 0.068313
vt 0.598008 0.053438
vt 0.897055 0.254573
vt 0.863518 0.259583
vt 0.664860 0.691411
vt 0.890953 0.305538
vt 0.606556 0.000000
vt 0.963946 0.312358
s 0
f 3/7/1 9/21/1 8/20/1
f 5/12/2 6/16/2 12/27/2
f 4/10/3 10/24/3 9/22/3
f 1/2/4 2/4/4 8/19/4
f 6/16/5 1/1/5 7/17/5
f 5/13/6 11/26/6 10/24/6
f 11/25/7 12/27/7 18/38/7
f 10/23/8 16/35/8 15/33/8
f 7/18/9 8/19/9 14/30/9
f 12/27/10 7/17/10 13/28/10
f 11/26/11 17/36/11 16/34/11
f 8/20/12 9/21/12 15/33/12
f 18/38/13 13/28/13 19/39/13
f 17/36/14 23/46/14 22/45/14
f 15/33/15 21/44/15 20/41/15
f 18/38/16 24/48/16 23/47/16
f 16/34/17 22/45/17 21/43/17
f 13/29/18 14/30/18 20/42/18
f 24/48/19 25/50/19 23/47/19
f 22/45/20 25/51/20 21/43/20
f 20/42/21 25/49/21 19/40/21
f 19/39/22 25/50/22 24/48/22
f 23/46/23 25/51/23 22/45/23
f 21/44/24 25/52/24 20/41/24
f 5/14/25 1/3/25 6/15/25
f 28/58/26 34/73/26 33/71/26
f 30/64/27 31/66/27 37/77/27
f 29/61/28 35/74/28 34/72/28
f 26/54/29 27/56/29 33/71/29
f 31/67/30 26/53/30 32/70/30
f 30/64/31 36/76/31 35/75/31
f 36/76/32 37/77/32 43/88/32
f 34/72/33 35/74/33 41/84/33
f 33/71/34 39/81/34 38/80/34
f 32/70/35 38/79/35 43/87/35
f 35/75/36 36/76/36 42/86/36
f 34/73/37 40/82/37 39/81/37
f 38/79/38 44/89/38 49/98/38
f 42/86/39 48/96/39 47/94/39
f 39/81/40 40/82/40 46/92/40
f 43/88/41 49/97/41 48/96/41
f 40/83/42 41/84/42 47/95/42
f 38/80/43 39/81/43 45/91/43
f 49/97/44 50/101/44 48/96/44
f 47/95/45 50/99/45 46/93/45
f 45/91/46 50/102/46 44/90/46
f 44/89/47 50/100/47 49/98/47
f 48/96/48 50/101/48 47/94/48
f 46/92/49 50/102/49 45/91/49
f 31/68/25 28/60/25 26/55/25
f 53/109/50 59/123/50 58/122/50
f 55/115/51 56/118/51 62/128/51
f 54/112/52 60/125/52 59/124/52
f 52/107/53 58/121/53 57/119/53
f 56/118/54 51/103/54 57/120/54
f 54/112/55 55/114/55 61/126/55
f 62/128/56 68/138/56 67/137/56
f 59/124/57 60/125/57 66/135/57
f 58/121/58 64/131/58 63/130/58
f 57/120/59 63/129/59 68/138/59
f 60/125/60 61/126/60 67/136/60
f 58/122/61 59/123/61 65/133/61
f 68/138/62 63/129/62 69/139/62
f 67/136/63 73/146/63 72/145/63
f 64/132/64 65/133/64 71/143/64
f 68/138/65 74/148/65 73/147/65
f 65/134/66 66/135/66 72/145/66
f 63/130/67 64/131/67 70/142/67
f 74/148/68 75/150/68 73/147/68
f 72/145/69 75/151/69 71/144/69
f 70/142/70 75/149/70 69/140/70
f 69/139/71 75/150/71 74/148/71
f 73/146/72 75/151/72 72/145/72
f 71/143/73 75/152/73 70/141/73
f 55/116/25 51/105/25 56/117/25
f 3/7/1 8/20/1 2/5/1
f 5/12/2 12/27/2 11/25/2
f 4/10/3 9/22/3 3/8/3
f 1/2/4 8/19/4 7/18/4
f 6/16/5 7/17/5 12/27/5
f 5/13/6 10/24/6 4/10/6
f 11/25/74 18/38/74 17/37/74
f 10/24/75 15/32/75 9/22/75
f 7/18/76 14/30/76 13/29/76
f 12/27/77 13/28/77 18/38/77
f 11/26/78 16/34/78 10/24/78
f 8/20/79 15/33/79 14/31/79
f 18/38/80 19/39/80 24/48/80
f 17/36/81 22/45/81 16/34/81
f 15/33/82 20/41/82 14/31/82
f 18/38/83 23/47/83 17/37/83
f 16/35/84 21/44/84 15/33/84
f 13/29/85 20/42/85 19/40/85
f 1/3/25 5/14/25 2/6/25
f 2/6/25 5/14/25 3/9/25
f 3/9/25 5/14/25 4/11/25
f 28/58/26 33/71/26 27/56/26
f 30/64/27 37/77/27 36/76/27
f 29/61/28 34/72/28 28/59/28
f 26/54/29 33/71/29 32/69/29
f 31/67/30 32/70/30 37/78/30
f 30/64/31 35/75/31 29/62/31
f 36/76/32 43/88/32 42/86/32
f 34/72/33 41/84/33 40/83/33
f 33/71/34 38/80/34 32/69/34
f 32/70/35 43/87/35 37/78/35
f 35/75/36 42/86/36 41/85/36
f 34/73/37 39/81/37 33/71/37
f 38/79/38 49/98/38 43/87/38
f 42/86/39 47/94/39 41/85/39
f 39/81/40 46/92/40 45/91/40
f 43/88/41 48/96/41 42/86/41
f 40/83/42 47/95/42 46/93/42
f 38/80/43 45/91/43 44/90/43
f 26/55/25 28/60/25 27/57/25
f 28/60/25 30/65/25 29/63/25
f 30/65/25 28/60/25 31/68/25
f 53/109/50 58/122/50 52/106/50
f 55/115/51 62/128/51 61/127/51
f 54/112/52 59/124/52 53/110/52
f 52/107/53 57/119/53 51/104/53
f 56/118/54 57/120/54 62/128/54
f 54/112/55 61/126/55 60/125/55
f 62/128/56 67/137/56 61/127/56
f 59/124/57 66/135/57 65/134/57
f 58/121/58 63/130/58 57/119/58
f 57/120/59 68/138/59 62/128/59
f 60/125/60 67/136/60 66/135/60
f 58/122/61 65/133/61 64/132/61
f 68/138/62 69/139/62 74/148/62
f 67/136/86 72/145/86 66/135/86
f 64/132/64 71/143/64 70/141/64
f 68/138/65 73/147/65 67/137/65
f 65/134/87 72/145/87 71/144/87
f 63/130/67 70/142/67 69/140/67
f 51/105/25 53/111/25 52/108/25
f 53/111/25 51/105/25 54/113/25
f 54/113/25 51/105/25 55/116/25
